<svg id="Calque_1" data-name="Calque 1" xmlns="http://www.w3.org/2000/svg" xmlns:xlink="http://www.w3.org/1999/xlink" viewBox="0 0 538.34 745.09">
  <defs>
    <linearGradient id="Dégradé_sans_nom_3" data-name="Dégradé sans nom 3" x1="245.22" y1="450.92" x2="365.38" y2="450.92" gradientUnits="userSpaceOnUse">
      <stop offset="0" stop-color="#7d4a98"/>
      <stop offset="1" stop-color="#3c61ab"/>
    </linearGradient>
    <linearGradient id="Dégradé_sans_nom_3-2" x1="229.05" y1="451.18" x2="377.85" y2="451.18" xlink:href="#Dégradé_sans_nom_3"/>
    <linearGradient id="Dégradé_sans_nom_3-3" x1="212.2" y1="451.52" x2="390.42" y2="451.52" xlink:href="#Dégradé_sans_nom_3"/>
    <linearGradient id="Dégradé_sans_nom_3-4" x1="194.42" y1="450.9" x2="404.69" y2="450.9" xlink:href="#Dégradé_sans_nom_3"/>
    <linearGradient id="Dégradé_sans_nom_3-5" x1="175.5" y1="447.73" x2="424.93" y2="447.73" xlink:href="#Dégradé_sans_nom_3"/>
    <linearGradient id="Dégradé_sans_nom_3-6" x1="155.47" y1="444.53" x2="445.51" y2="444.53" xlink:href="#Dégradé_sans_nom_3"/>
    <linearGradient id="Dégradé_sans_nom_3-7" x1="134.81" y1="441.34" x2="465.82" y2="441.34" xlink:href="#Dégradé_sans_nom_3"/>
    <linearGradient id="Dégradé_sans_nom_3-8" x1="113.87" y1="438.14" x2="486.07" y2="438.14" xlink:href="#Dégradé_sans_nom_3"/>
    <linearGradient id="Dégradé_sans_nom_3-9" x1="92.73" y1="434.93" x2="506.3" y2="434.93" xlink:href="#Dégradé_sans_nom_3"/>
    <linearGradient id="Dégradé_sans_nom_3-10" x1="71.45" y1="431.7" x2="526.51" y2="431.7" xlink:href="#Dégradé_sans_nom_3"/>
    <linearGradient id="Dégradé_sans_nom_3-11" x1="50.06" y1="428.49" x2="546.72" y2="428.49" xlink:href="#Dégradé_sans_nom_3"/>
    <linearGradient id="Dégradé_sans_nom_3-12" x1="28.59" y1="425.28" x2="566.92" y2="425.28" xlink:href="#Dégradé_sans_nom_3"/>
  </defs>
  <title>Graphique</title>
  <path d="M651.49,282.08" transform="translate(-28.59 -52.73)" style="fill: none;stroke: #3d61ab;stroke-miterlimit: 10"/>
  <g>
    <path d="M295.15,414.18s-83-33.46-32.77-34.11,24.81-28.75,57-1.69,44.75-8,31.87,15.22,30.21,5.72,5.08,32.13S359,561.08,321.64,529.51,351.91,409.7,303,431.6,295.15,414.18,295.15,414.18Z" transform="translate(-28.59 -52.73)" style="fill: none;stroke-miterlimit: 10;stroke-width: 2px;stroke: url(#Dégradé_sans_nom_3)"/>
    <path d="M248.72,363.08c45.53-7.75,24.19-34.73,60.37-7.58,38.76,29.07,52.12-17.67,45,8.36-6.76,24.81,36.7,12.77,17.8,41.49-1.24,1.88-2.61,3.93-4,6.23-11.4,18.71-13.62,56-7.3,71.41,3.09,7.51,3.71,25-2.39,38.39-10.91,23.94-16.71,52.38-37.8,28-20.14-23.27-22.63-49.19-20.41-62.7,2.32-14,1.28-31.08-5.22-40.72-1.78-2.64-5.63-3.34-11.23-1.9C252.82,452,270.71,429,275.67,419.7c1.64-3.05,3.15-5.22,2.35-5.57-4.29-1.86-28.17-14.9-39.69-26.7-7.4-7.54-11.11-14.21-5.28-18A40,40,0,0,1,248.72,363.08Z" transform="translate(-28.59 -52.73)" style="fill: none;stroke-miterlimit: 10;stroke-width: 2.2727272808551793px;stroke: url(#Dégradé_sans_nom_3-2)"/>
    <path d="M235.07,346.08c40.08-14,23.67-40.81,63.72-13.47,45.41,31,59.53-27.28,58.17,1.52-1.31,27.74,47.93,18.25,27,54.77-1.48,2.57-3,5.41-4.53,8.54C366,425.61,369,477.92,376.92,489.9c9.1,3.27,8.88,29-3.83,46.58-18.22,25.25-28.72,67.08-53.92,32.78-24.45-33.26-32.5-61.59-33-67.63-.53-6.45-10.28-20.58-14.21-38.2-.88-4-3.64-6.66-7.85-6.89-23.75-1.33-3.62-27.51-2.67-36.67.3-2.86,1.05-5.08-.56-5.79-8.58-3.73-34.3-20.91-42.86-35.81-5.5-9.52-6.72-17.35.23-21.86C222.85,353.44,228,348.56,235.07,346.08Z" transform="translate(-28.59 -52.73)" style="fill: none;stroke-miterlimit: 10;stroke-width: 2.545454551776251px;stroke: url(#Dégradé_sans_nom_3-3)"/>
    <path d="M221.42,329.08c37.47-11.25,23.22-47,67.06-19.35,52.13,32.85,67-36.88,71.33-5.34,4.2,30.71,59.26,23.79,36.2,68.05-1.71,3.28-3.44,6.9-5,10.86-15.28,37.71-10.1,105.81,2.27,113.5,13.86-.31,14.51,33.35-5.25,54.79-25,27.06-40.71,81.77-70.06,37.55-28.73-43.28-42.17-73.85-45.56-72.57-3.19,1.2-22.57-10.11-23.2-35.69-.13-5.3-1.4-9.89-4.48-11.87-15.63-10.09,8.08-40.16,2.54-49-.3-2.58-1-4.94-3.47-6-12.87-5.6-40.43-26.94-46-44.94-3.61-11.48-2.35-20.47,5.74-25.72C209.26,339.63,215.33,334.33,221.42,329.08Z" transform="translate(-28.59 -52.73)" style="fill: none;stroke-miterlimit: 10;stroke-width: 2.818181822697322px;stroke: url(#Dégradé_sans_nom_3-4)"/>
    <path d="M207.77,312.09c33.22-14.79,22.82-53.21,70.41-25.24,58.9,34.62,74.53-46.48,84.47-12.2,9.77,33.67,70.67,29.37,45.41,81.34a132.55,132.55,0,0,0-5.55,13.17c-17,47.27-9.72,131.14,7.05,134.55,18.63-3.91,20.32,38-6.68,63-31.57,29.19-52.67,96.45-86.19,42.32-33-53.29-52-86.37-58.13-77.5-6,8.61-35.11.17-32.19-33.17.59-6.69.8-12.79-1.1-16.87-7.84-16.89,18.21-52.83,7.74-61.28a13.49,13.49,0,0,0-6.38-6.2c-17.16-7.46-46.57-32.95-49.19-54.05-1.71-13.45,2-23.61,11.26-29.59C195.67,325.82,202.23,319,207.77,312.09Z" transform="translate(-28.59 -52.73)" style="fill: none;stroke-miterlimit: 10;stroke-width: 3.0909090936183934px;stroke: url(#Dégradé_sans_nom_3-5)"/>
    <path d="M194.11,295.09c29-18.32,22.45-59.49,73.76-31.12,65.71,36.33,82.08-56.1,97.63-19.05,15.36,36.6,82.11,34.94,54.61,94.61A146.45,146.45,0,0,0,414.05,355c-18.71,56.83-9,159.3,11.83,155.59,24.19-4.29,26.21,42.88-8.11,71.18-38.19,31.5-64.5,111.06-102.31,47.1-37.14-63.39-61.8-98.8-70.7-82.44C236,562.56,197,556.78,203.57,515.79c1.3-8.1,2.64-15.67,2.28-21.85-1.39-23.8,27.18-63.6,12.94-73.59-2.7-1.89-5.26-4.65-9.29-6.41-21.45-9.32-52.7-39-52.35-63.17.19-15.42,6.41-26.74,16.76-33.45C182.08,312,189.13,303.76,194.11,295.09Z" transform="translate(-28.59 -52.73)" style="fill: none;stroke-miterlimit: 10;stroke-width: 3.3636363645394645px;stroke: url(#Dégradé_sans_nom_3-6)"/>
    <path d="M180.46,278.09c24.71-21.85,22.09-65.81,77.11-37,72.54,38,89.64-65.75,110.78-25.91,21,39.53,93.56,40.53,63.82,107.9a159.8,159.8,0,0,0-6.58,17.8c-20.36,66.4-8.41,184,16.61,176.64,29-8.57,32.13,47.86-9.53,79.37-44.85,33.92-76.48,125.75-118.45,51.87-41.41-73.4-71.63-111.22-83.27-87.37-11.59,23.62-60.37,20.43-50.18-28.14,2-9.54,4.42-18.71,5.66-26.84,4.81-31.43,37.76-76.53,18.14-85.9-3.66-1.74-7.37-4.51-12.2-6.61-25.74-11.2-58.83-45-55.51-72.29,2.08-17.39,10.79-29.87,22.27-37.32C168.49,298.21,176,288.48,180.46,278.09Z" transform="translate(-28.59 -52.73)" style="fill: none;stroke-miterlimit: 10;stroke-width: 3.636363635460536px;stroke: url(#Dégradé_sans_nom_3-7)"/>
    <path d="M166.81,261.1c20.45-25.39,21.74-72.17,80.45-42.9,79.4,39.6,97.22-75.4,123.93-32.75,26.59,42.43,105.05,46.12,73,121.17a176.21,176.21,0,0,0-7.09,20.11c-22,76-8,208.84,21.39,197.7,33.71-12.79,38.07,52.93-11,87.56C396,648.39,359.12,752.43,313,668.64,267.3,585.22,231.55,545,217.14,576.33c-14.37,31.13-73,30.49-59.17-25.63,2.71-11,6.21-21.8,9-31.82,11.1-39.38,48.18-89.56,23.34-98.2-4.66-1.63-9.47-4.37-15.12-6.83-30-13.06-64.95-51-58.67-81.4a63.63,63.63,0,0,1,27.78-41.19C154.9,284.4,162.94,273.2,166.81,261.1Z" transform="translate(-28.59 -52.73)" style="fill: none;stroke-miterlimit: 10;stroke-width: 3.9090909063816075px;stroke: url(#Dégradé_sans_nom_3-8)"/>
    <path d="M153.16,244.1c12.07-30.87,21.39-78.55,83.8-48.78,86.26,41.16,104.78-85.07,137.08-39.61s116.53,51.71,82.23,134.46a190.81,190.81,0,0,0-7.6,22.42c-23.59,85.54-7.69,233.7,26.17,218.74,38.32-16.92,44,58.07-12.38,95.76C404.22,666,362,782.22,311.75,688.51c-49.95-93.42-91.23-136-108.42-97.24s-85.66,40.52-68.16-23.11c3.42-12.43,8-24.93,12.42-36.81,17.48-47.45,58.5-102.59,28.54-110.51-5.69-1.51-11.58-4.23-18-7-34.31-14.92-71.09-57-61.83-90.52a78.55,78.55,0,0,1,33.29-45.06C141.31,270.59,148,257.33,153.16,244.1Z" transform="translate(-28.59 -52.73)" style="fill: none;stroke-miterlimit: 10;stroke-width: 4.181818177302679px;stroke: url(#Dégradé_sans_nom_3-9)"/>
    <path d="M139.5,227.11c9-33.4,21.06-85,87.15-54.67C319.79,215.12,339.11,77.62,376.89,126c37.9,48.13,128,57.3,91.43,147.74a208.71,208.71,0,0,0-8.12,24.74c-25.18,95.1-7.44,258.6,31,239.79,42.88-21,49.93,63.24-13.82,104C412.39,683.69,365,812,310.51,708.39c-54.22-103.44-101-148.45-121-102.18s-98.3,50.54-77.15-20.6c4.13-13.88,9.88-28.07,15.8-41.8,23.92-55.57,68.74-115.6,33.74-122.81-6.74-1.39-13.68-4.09-20.94-7.24-38.6-16.79-77.22-63.05-65-99.64,7.76-23.3,23.93-39.27,38.79-48.93C127.72,256.79,135.39,242.33,139.5,227.11Z" transform="translate(-28.59 -52.73)" style="fill: none;stroke-miterlimit: 10;stroke-width: 4.454545448223749px;stroke: url(#Dégradé_sans_nom_3-10)"/>
    <path d="M125.85,210.11c6.18-36.29,20.73-91.37,90.5-60.55,100,44.18,120-104.47,163.38-53.32s139.65,62.93,100.64,161a232.69,232.69,0,0,0-8.63,27.05C445.15,389,464.5,567.83,507.49,545.14c47.44-25,55.86,68.44-15.25,112.16-71.7,44.08-124.35,184.51-183,71S198.44,567.41,175.72,621.15,64.78,681.7,89.57,603.07c4.84-15.34,11.74-31.21,19.17-46.79,30.41-63.72,79-128.59,39-135.12a101.45,101.45,0,0,1-23.85-7.45C81,395.05,40.49,344.65,55.68,305,65.35,279.69,84,262.55,100,252.16,114.13,243,122.94,227.25,125.85,210.11Z" transform="translate(-28.59 -52.73)" style="fill: none;stroke-miterlimit: 10;stroke-width: 4.727272719144821px;stroke: url(#Dégradé_sans_nom_3-11)"/>
    <path d="M85.2,239.13c15.34-10,25.36-27.06,27-46,3.42-39.53,20.39-97.8,93.84-66.43,106.9,45.65,127.5-114.13,176.54-60.18s151,68.48,109.84,174.3-20.59,340.3,31.39,311.25,61.79,73.66-16.67,120.35S370.81,871.6,308,748.14s-120.63-173.26-146.13-112S38.33,706.64,66.77,620.53s122.6-191.94,66.7-199.2S13.81,346.63,35.39,295.79C47,268.55,68.08,250.25,85.2,239.13Z" transform="translate(-28.59 -52.73)" style="fill: none;stroke-miterlimit: 10;stroke-width: 5px;stroke: url(#Dégradé_sans_nom_3-12)"/>
  </g>
</svg>
