<svg xmlns="http://www.w3.org/2000/svg" viewBox="0 0 303 416"><linearGradient id="a" gradientUnits="userSpaceOnUse" x1="122.051" y1="207.871" x2="188.294" y2="207.871" gradientTransform="matrix(1 0 0 -1 0 430)"><stop offset="0" stop-color="#ffb914"/><stop offset="1" stop-color="#ff1b1b"/></linearGradient><path d="M149.6 201.9s-45.8-18.4-18.1-18.8c27.7-.4 13.7-15.8 31.4-.9s24.7-4.4 17.6 8.4c-7.1 12.8 16.7 3.2 2.8 17.7-13.9 14.6 1.5 74.6-19.1 57.2-20.6-17.4 16.7-66.1-10.3-54-27 12.1-4.3-9.6-4.3-9.6z" fill="none" stroke="url(#a)" stroke-width="2" stroke-miterlimit="10"/><linearGradient id="b" gradientUnits="userSpaceOnUse" x1="18614.1" y1="207.726" x2="30632.6" y2="207.726" gradientTransform="matrix(1 0 0 -1 0 430)"><stop offset="0" stop-color="#ff1b1b"/><stop offset="1" stop-color="#ffb914"/></linearGradient><path d="M124 173.7c25.1-4.3 13.3-19.1 33.3-4.2 21.4 16 28.7-9.7 24.8 4.6-3.7 13.7 20.2 7 9.8 22.9-.7 1-1.4 2.2-2.2 3.4-6.3 10.3-7.5 30.9-4 39.4 1.7 4.1 2 13.8-1.3 21.2-6 13.2-9.2 28.9-20.8 15.4-11.1-12.8-12.5-27.1-11.3-34.6 1.3-7.7.7-17.1-2.9-22.4-1-1.5-3.1-1.8-6.2-1-16.9 4.4-7.1-8.3-4.3-13.4.9-1.7 1.7-2.9 1.3-3.1-2.4-1-15.5-8.2-21.9-14.7-4.1-4.2-6.1-7.8-2.9-9.9 2.5-1.9 5.5-3.1 8.6-3.6z" fill="none" stroke="url(#b)" stroke-width="2.273" stroke-miterlimit="10"/><linearGradient id="c" gradientUnits="userSpaceOnUse" x1="20657.5" y1="207.546" x2="37919.301" y2="207.546" gradientTransform="matrix(1 0 0 -1 0 430)"><stop offset="0" stop-color="#ff1b1b"/><stop offset=".885" stop-color="#ffb914"/></linearGradient><path d="M116.5 164.3c22.1-7.7 13-22.5 35.1-7.4 25 17.1 32.8-15 32.1.8-.7 15.3 26.4 10.1 14.9 30.2-.8 1.4-1.7 3-2.5 4.7-7.4 15.5-5.8 44.4-1.4 51 5 1.8 4.9 16-2.1 25.7-10 13.9-15.8 37-29.7 18.1-13.5-18.3-17.9-34-18.2-37.3-.3-3.6-5.7-11.3-7.8-21.1-.5-2.2-2-3.7-4.3-3.8-13.1-.7-2-15.2-1.5-20.2.2-1.6.6-2.8-.3-3.2-4.7-2.1-18.9-11.5-23.6-19.7-3-5.2-3.7-9.6.1-12.1 2.4-1.6 5.3-4.3 9.2-5.7z" fill="none" stroke="url(#c)" stroke-width="2.545" stroke-miterlimit="10"/><linearGradient id="d" gradientUnits="userSpaceOnUse" x1="22328.699" y1="207.884" x2="46375.102" y2="207.884" gradientTransform="matrix(1 0 0 -1 0 430)"><stop offset="0" stop-color="#ffb914"/><stop offset="1" stop-color="#ff1b1b"/></linearGradient><path d="M108.9 155c20.7-6.2 12.8-25.9 37-10.7 28.7 18.1 36.9-20.3 39.3-2.9 2.3 16.9 32.7 13.1 20 37.5-.9 1.8-1.9 3.8-2.8 6-8.4 20.8-5.6 58.3 1.3 62.6 7.6-.2 8 18.4-2.9 30.2-13.8 14.9-22.4 45.1-38.6 20.7-15.8-23.9-23.2-40.7-25.1-40-1.8.7-12.4-5.6-12.8-19.7-.1-2.9-.8-5.5-2.5-6.5-8.6-5.6 4.5-22.1 1.4-27-.2-1.4-.6-2.7-1.9-3.3-7.1-3.1-22.3-14.9-25.4-24.8-2-6.3-1.3-11.3 3.2-14.2 3.1-2.1 6.5-5 9.8-7.9z" fill="none" stroke="url(#d)" stroke-width="2.818" stroke-miterlimit="10"/><linearGradient id="e" gradientUnits="userSpaceOnUse" x1="23919" y1="209.626" x2="57794" y2="209.626" gradientTransform="matrix(1 0 0 -1 0 430)"><stop offset="0" stop-color="#ffb914"/><stop offset="1" stop-color="#ff1b1b"/></linearGradient><path d="M101.4 145.6c18.3-8.2 12.6-29.3 38.8-13.9 32.5 19.1 41.1-25.6 46.6-6.7 5.4 18.6 39 16.2 25 44.8-1.1 2.4-2.2 4.8-3.1 7.3-9.4 26.1-5.4 72.3 3.9 74.2 10.3-2.2 11.2 20.9-3.7 34.7-17.4 16.1-29 53.2-47.5 23.3-18.2-29.4-28.7-47.6-32-42.7-3.3 4.7-19.4.1-17.7-18.3.3-3.7.4-7.1-.6-9.3-4.3-9.3 10-29.1 4.3-33.8-.8-1.5-2-2.7-3.5-3.4-9.5-4.1-25.7-18.2-27.1-29.8-.9-7.4 1.1-13 6.2-16.3 3.7-2.5 7.4-6.3 10.4-10.1z" fill="none" stroke="url(#e)" stroke-width="3.091" stroke-miterlimit="10"/><linearGradient id="f" gradientUnits="userSpaceOnUse" x1="24644.6" y1="211.398" x2="70483.797" y2="211.398" gradientTransform="matrix(1 0 0 -1 0 430)"><stop offset="0" stop-color="#ffb914"/><stop offset="1" stop-color="#ff1b1b"/></linearGradient><path d="M93.9 136.2c16-10.1 12.4-32.8 40.7-17.2 36.2 20 45.3-30.9 53.8-10.5 8.5 20.2 45.3 19.3 30.1 52.2-1.3 2.8-2.4 5.6-3.3 8.5-10.3 31.3-5 87.8 6.5 85.8 13.3-2.4 14.4 23.6-4.5 39.2-21.1 17.4-35.6 61.2-56.4 26-20.5-34.9-34.1-54.5-39-45.4-4.8 8.9-26.3 5.7-22.7-16.9.7-4.5 1.5-8.6 1.3-12-.8-13.1 15-35.1 7.1-40.6-1.5-1-2.9-2.6-5.1-3.5-11.8-5.1-29.1-21.5-28.9-34.8.1-8.5 3.5-14.7 9.2-18.4 4.5-3.1 8.4-7.6 11.2-12.4z" fill="none" stroke="url(#f)" stroke-width="3.364" stroke-miterlimit="10"/><linearGradient id="g" gradientUnits="userSpaceOnUse" x1="24391.4" y1="213.154" x2="84129.102" y2="213.154" gradientTransform="matrix(1 0 0 -1 0 430)"><stop offset="0" stop-color="#ff1b1b"/><stop offset="1" stop-color="#ffb914"/></linearGradient><path d="M86.3 126.9c13.6-12 12.2-36.3 42.5-20.4 40 20.9 49.4-36.2 61.1-14.3 11.6 21.8 51.6 22.3 35.2 59.5-1.4 3.2-2.6 6.5-3.6 9.8-11.2 36.6-4.6 101.4 9.2 97.4 16-4.7 17.7 26.4-5.3 43.8-24.7 18.7-42.2 69.3-65.3 28.6-22.8-40.5-39.5-61.3-45.9-48.2-6.4 13-33.3 11.3-27.7-15.5 1.1-5.3 2.4-10.3 3.1-14.8 2.7-17.3 20.8-42.2 10-47.4-2-1-4.1-2.5-6.7-3.6-14.2-6.2-32.4-24.8-30.6-39.9 1.1-9.6 5.9-16.5 12.3-20.6 5.2-3.4 9.3-8.7 11.7-14.4z" fill="none" stroke="url(#g)" stroke-width="3.636" stroke-miterlimit="10"/><linearGradient id="h" gradientUnits="userSpaceOnUse" x1="23171.199" y1="214.918" x2="98743.609" y2="214.918" gradientTransform="matrix(1 0 0 -1 0 430)"><stop offset="0" stop-color="#ffb914"/><stop offset="1" stop-color="#ff1b1b"/></linearGradient><path d="M78.8 117.5c11.3-14 12-39.8 44.4-23.7 43.8 21.8 53.6-41.6 68.3-18.1 14.7 23.4 57.9 25.4 40.2 66.8-1.5 3.6-2.8 7.3-3.9 11.1-12.1 41.9-4.4 115.1 11.8 109 18.6-7.1 21 29.2-6.1 48.3-28.4 20.1-48.7 77.4-74.1 31.2-25.2-46-44.9-68.2-52.8-50.9-7.9 17.2-40.2 16.8-32.6-14.1 1.5-6.1 3.4-12 5-17.5 6.1-21.7 26.6-49.4 12.9-54.1-2.6-.9-5.2-2.4-8.3-3.8-16.5-7.2-35.8-28.1-32.3-44.9.9-4.6 2.7-9 5.3-12.9 2.6-3.9 6-7.2 10-9.8 5.7-3.8 10.1-9.9 12.2-16.6z" fill="none" stroke="url(#h)" stroke-width="3.909" stroke-miterlimit="10"/><linearGradient id="i" gradientUnits="userSpaceOnUse" x1="20966.1" y1="216.689" x2="114299" y2="216.689" gradientTransform="matrix(1 0 0 -1 0 430)"><stop offset="0" stop-color="#ffb914"/><stop offset="1" stop-color="#ff1b1b"/></linearGradient><path d="M71.3 108.1c6.7-17 11.8-43.3 46.2-26.9 47.6 22.7 57.8-46.9 75.6-21.8 17.8 25.1 64.2 28.5 45.3 74.1-1.7 4-3 8.2-4.2 12.4-13 47.2-4.2 128.8 14.4 120.6 21.1-9.3 24.3 32-6.8 52.8-32.1 21.5-55.4 85.5-83.1 33.9-27.5-51.5-50.3-75-59.8-53.6s-47.2 22.3-37.6-12.7c1.9-6.9 4.4-13.7 6.8-20.3 9.6-26.2 32.3-56.6 15.7-60.9-3.1-.8-6.4-2.3-9.9-3.9-18.9-8.2-39.2-31.4-34.1-49.9 2.9-10.3 9.4-19.1 18.4-24.8 6.6-4.4 10.3-11.7 13.1-19z" fill="none" stroke="url(#i)" stroke-width="4.182" stroke-miterlimit="10"/><linearGradient id="j" gradientUnits="userSpaceOnUse" x1="17778.801" y1="218.461" x2="130836" y2="218.461" gradientTransform="matrix(1 0 0 -1 0 430)"><stop offset="0" stop-color="#ff1b1b"/><stop offset="1" stop-color="#ffb914"/></linearGradient><path d="M63.8 98.7c5-18.4 11.6-46.9 48-30.1 51.3 23.5 62-52.3 82.8-25.6 20.9 26.5 70.6 31.6 50.4 81.4-1.8 4.4-3.3 9-4.5 13.6-13.9 52.4-4.1 142.6 17.1 132.2 23.6-11.6 27.5 34.9-7.6 57.3-35.8 22.8-62 93.6-92 36.5-29.9-57-55.7-81.8-66.7-56.3s-54.2 27.9-42.5-11.4c2.3-7.7 5.4-15.5 8.7-23 13.2-30.6 37.9-63.7 18.6-67.7-3.7-.8-7.5-2.3-11.5-4-21.3-9.3-42.6-34.8-35.8-54.9 4.3-12.8 13.2-21.6 21.4-27 7.1-4.6 11.3-12.6 13.6-21z" fill="none" stroke="url(#j)" stroke-width="4.455" stroke-miterlimit="10"/><linearGradient id="k" gradientUnits="userSpaceOnUse" x1="13592.1" y1="220.23" x2="148287" y2="220.23" gradientTransform="matrix(1 0 0 -1 0 430)"><stop offset="0" stop-color="#ff1b1b"/><stop offset="1" stop-color="#ffb914"/></linearGradient><path d="M56.2 89.4c3.4-20 11.4-50.4 49.9-33.4 55.1 24.4 66.2-57.6 90.1-29.4 23.9 28.2 77 34.7 55.5 88.8-1.9 4.9-3.5 9.9-4.8 14.9-14.7 57.7-4 156.3 19.7 143.8 26.2-13.8 30.8 37.7-8.4 61.8-39.5 24.3-68.6 101.7-100.9 39.1-32.3-62.5-61-88.6-73.6-59-12.5 29.6-61.2 33.4-47.5-10 2.7-8.5 6.5-17.2 10.6-25.8 16.8-35.1 43.6-70.9 21.5-74.5-4.5-.8-9-2.2-13.1-4.1-23.6-10.3-46-38.1-37.6-59.9 5.3-14 15.6-23.4 24.4-29.1 7.8-5.1 12.6-13.8 14.2-23.2z" fill="none" stroke="url(#k)" stroke-width="4.727" stroke-miterlimit="10"/><linearGradient id="l" gradientUnits="userSpaceOnUse" x1="8410.2" y1="222" x2="166693" y2="222" gradientTransform="matrix(1 0 0 -1 0 430)"><stop offset="0" stop-color="#ffb914"/><stop offset="1" stop-color="#ff1b1b"/></linearGradient><path d="M33.8 105.4c8.5-5.5 14-14.9 14.9-25.4 1.9-21.8 11.2-53.9 51.7-36.6 58.9 25.2 70.3-62.9 97.3-33.2 27 29.7 83.2 37.8 60.6 96.1-22.7 58.3-11.4 187.6 17.3 171.6 28.7-16 34.1 40.6-9.2 66.3C223.2 370 191.3 454 156.7 386s-66.5-95.5-80.6-61.7C62 358 8 363.1 23.7 315.6c15.7-47.5 67.6-105.8 36.8-109.8-30.8-4-66-41.2-54.1-69.2 6.4-15 18-25.1 27.4-31.2z" fill="none" stroke="url(#l)" stroke-width="5" stroke-miterlimit="10"/></svg>